<svg width="81" height="80" viewBox="0 0 81 80" fill="none" xmlns="http://www.w3.org/2000/svg">
<path d="M36.75 2.74241C39.0705 1.40267 41.9295 1.40267 44.25 2.74241L70.891 18.1236C73.2115 19.4634 74.641 21.9393 74.641 24.6188V55.3812C74.641 58.0607 73.2115 60.5366 70.891 61.8764L44.25 77.2576C41.9295 78.5973 39.0705 78.5973 36.75 77.2576L10.109 61.8764C7.78847 60.5366 6.35898 58.0607 6.35898 55.3812V24.6188C6.35898 21.9393 7.78847 19.4634 10.109 18.1236L36.75 2.74241Z" stroke="#EDFCFC"/>
<path d="M42.0833 58.75C41.4931 58.75 40.9983 58.5503 40.599 58.151C40.1997 57.7517 40 57.2569 40 56.6667C40 56.0764 40.1997 55.5816 40.599 55.1823C40.9983 54.783 41.4931 54.5833 42.0833 54.5833H54.5833V25.4167H42.0833C41.4931 25.4167 40.9983 25.217 40.599 24.8177C40.1997 24.4184 40 23.9236 40 23.3333C40 22.7431 40.1997 22.2483 40.599 21.849C40.9983 21.4497 41.4931 21.25 42.0833 21.25H54.5833C55.7292 21.25 56.7101 21.658 57.526 22.474C58.342 23.2899 58.75 24.2708 58.75 25.4167V54.5833C58.75 55.7292 58.342 56.7101 57.526 57.526C56.7101 58.342 55.7292 58.75 54.5833 58.75H42.0833ZM38.2812 42.0833H23.3333C22.7431 42.0833 22.2483 41.8837 21.849 41.4844C21.4497 41.0851 21.25 40.5903 21.25 40C21.25 39.4097 21.4497 38.9149 21.849 38.5156C22.2483 38.1163 22.7431 37.9167 23.3333 37.9167H38.2812L34.375 34.0104C33.9931 33.6285 33.8021 33.1597 33.8021 32.6042C33.8021 32.0486 33.9931 31.5625 34.375 31.1458C34.7569 30.7292 35.2431 30.5122 35.8333 30.4948C36.4236 30.4774 36.9271 30.6771 37.3438 31.0938L44.7917 38.5417C45.2083 38.9583 45.4167 39.4444 45.4167 40C45.4167 40.5556 45.2083 41.0417 44.7917 41.4583L37.3438 48.9062C36.9271 49.3229 36.4323 49.5226 35.8594 49.5052C35.2865 49.4878 34.7917 49.2708 34.375 48.8542C33.9931 48.4375 33.8108 47.9427 33.8281 47.3698C33.8455 46.7969 34.0451 46.3194 34.4271 45.9375L38.2812 42.0833Z" fill="#D2F3F3"/>
</svg>
