<svg width="80" height="80" viewBox="0 0 80 80" fill="none" xmlns="http://www.w3.org/2000/svg">
<path d="M52.5002 37.9166H48.3335C47.7432 37.9166 47.2484 37.717 46.8491 37.3177C46.4498 36.9184 46.2502 36.4236 46.2502 35.8333C46.2502 35.243 46.4498 34.7482 46.8491 34.3489C47.2484 33.9496 47.7432 33.75 48.3335 33.75H52.5002V29.5833C52.5002 28.993 52.6998 28.4982 53.0991 28.0989C53.4984 27.6996 53.9932 27.5 54.5835 27.5C55.1738 27.5 55.6686 27.6996 56.0679 28.0989C56.4672 28.4982 56.6668 28.993 56.6668 29.5833V33.75H60.8335C61.4238 33.75 61.9186 33.9496 62.3179 34.3489C62.7172 34.7482 62.9168 35.243 62.9168 35.8333C62.9168 36.4236 62.7172 36.9184 62.3179 37.3177C61.9186 37.717 61.4238 37.9166 60.8335 37.9166H56.6668V42.0833C56.6668 42.6736 56.4672 43.1684 56.0679 43.5677C55.6686 43.967 55.1738 44.1666 54.5835 44.1666C53.9932 44.1666 53.4984 43.967 53.0991 43.5677C52.6998 43.1684 52.5002 42.6736 52.5002 42.0833V37.9166ZM33.7502 40C31.4585 40 29.4967 39.184 27.8647 37.5521C26.2328 35.9201 25.4168 33.9583 25.4168 31.6666C25.4168 29.375 26.2328 27.4132 27.8647 25.7812C29.4967 24.1493 31.4585 23.3333 33.7502 23.3333C36.0418 23.3333 38.0036 24.1493 39.6356 25.7812C41.2675 27.4132 42.0835 29.375 42.0835 31.6666C42.0835 33.9583 41.2675 35.9201 39.6356 37.5521C38.0036 39.184 36.0418 40 33.7502 40ZM17.0835 52.5V50.8333C17.0835 49.6528 17.3873 48.5677 17.995 47.5781C18.6026 46.5885 19.4099 45.8333 20.4168 45.3125C22.5696 44.2361 24.7571 43.4288 26.9793 42.8906C29.2016 42.3524 31.4585 42.0833 33.7502 42.0833C36.0418 42.0833 38.2988 42.3524 40.521 42.8906C42.7432 43.4288 44.9307 44.2361 47.0835 45.3125C48.0904 45.8333 48.8977 46.5885 49.5054 47.5781C50.113 48.5677 50.4168 49.6528 50.4168 50.8333V52.5C50.4168 53.6458 50.0088 54.6267 49.1929 55.4427C48.3769 56.2587 47.396 56.6666 46.2502 56.6666H21.2502C20.1043 56.6666 19.1234 56.2587 18.3075 55.4427C17.4915 54.6267 17.0835 53.6458 17.0835 52.5ZM21.2502 52.5H46.2502V50.8333C46.2502 50.4514 46.1547 50.1041 45.9637 49.7916C45.7727 49.4791 45.521 49.2361 45.2085 49.0625C43.3335 48.125 41.4411 47.4219 39.5314 46.9531C37.6217 46.4844 35.6946 46.25 33.7502 46.25C31.8057 46.25 29.8786 46.4844 27.9689 46.9531C26.0592 47.4219 24.1668 48.125 22.2918 49.0625C21.9793 49.2361 21.7276 49.4791 21.5366 49.7916C21.3456 50.1041 21.2502 50.4514 21.2502 50.8333V52.5ZM33.7502 35.8333C34.896 35.8333 35.8769 35.4253 36.6929 34.6094C37.5088 33.7934 37.9168 32.8125 37.9168 31.6666C37.9168 30.5208 37.5088 29.5399 36.6929 28.7239C35.8769 27.908 34.896 27.5 33.7502 27.5C32.6043 27.5 31.6234 27.908 30.8075 28.7239C29.9915 29.5399 29.5835 30.5208 29.5835 31.6666C29.5835 32.8125 29.9915 33.7934 30.8075 34.6094C31.6234 35.4253 32.6043 35.8333 33.7502 35.8333Z" fill="#D2F3F3"/>
<path d="M36.25 2.74241C38.5705 1.40267 41.4295 1.40267 43.75 2.74241L70.391 18.1236C72.7115 19.4634 74.141 21.9393 74.141 24.6188V55.3812C74.141 58.0607 72.7115 60.5366 70.391 61.8764L43.75 77.2576C41.4295 78.5973 38.5705 78.5973 36.25 77.2576L9.60898 61.8764C7.28847 60.5366 5.85898 58.0607 5.85898 55.3812V24.6188C5.85898 21.9393 7.28847 19.4634 9.60898 18.1236L36.25 2.74241Z" stroke="#EDFCFC"/>
</svg>
