<svg width="371" height="132" viewBox="0 0 371 132" fill="none" xmlns="http://www.w3.org/2000/svg">
<path d="M82.8024 62.1908V90.0948C82.8024 92.3039 81.0115 94.0948 78.8024 94.0948H30.8025C28.5934 94.0948 26.8025 92.3039 26.8025 90.0948V41.8426C26.8025 39.6334 28.5689 37.8426 30.778 37.8426C43.1155 37.8426 80.1999 37.8426 84.8024 37.8426L79.6156 26H26.8033C20.1755 26 14.8028 31.3493 14.8032 37.977C14.8042 52.7904 14.8054 78.0012 14.8043 93.9768C14.8038 100.596 20.1382 105.949 26.7572 105.96C41.5962 105.985 66.9003 106.018 82.9377 105.988C89.5201 105.976 94.8024 100.634 94.8024 94.052V48.2851C93.3024 51.6589 91.8024 53.6327 82.8024 62.1908Z" fill="#2466A8"/>
<path d="M26.8024 46.7245C26.8024 44.8169 26.8025 43.1764 26.8025 41.8426C26.8025 39.6334 28.5901 37.8426 30.7992 37.8426C41.5953 37.8426 71.3664 37.8426 83.8024 37.8426C83.8024 37.8426 61.3024 28.9606 28.6531 26H26.8753C20.2478 26 14.8753 31.3726 14.8753 38V46.7245H26.8024Z" fill="url(#paint0_linear_60_697)"/>
<path fill-rule="evenodd" clip-rule="evenodd" d="M93.4082 34.498C91.2496 29.7592 84.8024 26 79.8024 26C74.8024 26 26.8033 26 26.8033 26C59.8033 29.9475 83.3024 37.8426 83.3024 37.8426C84.828 38.2728 85.2868 40.2119 84.1157 41.2801L82.0074 43.2031L59.7309 65.4817C59.3554 65.8573 58.7518 65.8738 58.3563 65.5193L53.0873 60.7962C52.9039 60.6318 52.6662 60.5408 52.4198 60.5408H38.353C37.4436 60.5408 37.0079 61.6398 37.6868 62.2449C43.2523 67.2062 55.3204 77.5649 58.3569 80.1682C58.7579 80.512 59.3468 80.4773 59.7163 80.0998C68.972 70.6421 80.68 60.3767 89.8466 50.9854C94.4532 46.266 96.3186 40.8842 93.4082 34.498Z" fill="#2466A8"/>
<path d="M133.487 95.5662H119.802V35.5781H161.994V47.5764H133.487V61.7163H155.913V73.7145H133.487V95.5662Z" fill="#2B333B"/>
<path d="M187.082 95.5662C183.684 96.1364 180.454 96.4221 177.388 96.4221C174.322 96.4221 171.749 95.253 169.673 92.9088C167.594 90.5674 166.555 87.4549 166.555 83.5679V35.5781H179.859V81.4257C179.859 82.2843 180.112 82.9982 180.62 83.5679C181.126 84.1414 181.76 84.4265 182.519 84.4265H187.082V95.5662Z" fill="#2B333B"/>
<path d="M209.127 51.8613V95.5662H195.822V63.4298H190.121V51.8613H209.127Z" fill="#2B333B"/>
<path d="M252.459 94.7104C242.981 95.8508 234.619 96.4222 227.372 96.4222C223.926 96.4222 221.164 95.2531 219.085 92.9089C217.007 90.5675 215.968 87.4549 215.968 83.568V63.858C215.968 59.5737 217.043 56.2192 219.199 53.7897C221.352 51.3608 224.33 50.1479 228.132 50.1479H252.458V61.7158H232.312C230.285 61.7158 229.271 62.8601 229.271 65.1443V81.854C229.271 82.7121 229.525 83.4265 230.032 83.9984C230.538 84.5692 231.173 84.8543 231.932 84.8543C236.494 84.8543 243.335 84.4266 252.458 83.568L252.459 94.7104Z" fill="#2B333B"/>
<path d="M271.844 77.5701V95.5662H258.539V35.5781H271.844V66.0001H277.926L286.288 50.1484H300.351L288.948 72.0006L300.351 95.5667H286.288L277.544 77.5707H271.844V77.5701Z" fill="#2B333B"/>
<path d="M320.876 51.8613V95.5662H307.573V63.4298H301.871V51.8613H320.876Z" fill="#2B333B"/>
<path d="M356.605 95.5661C351.69 96.1364 346.874 96.422 342.162 96.422C338.715 96.422 335.952 95.2529 333.875 92.9088C331.796 90.5674 330.759 87.4548 330.759 83.5679V61.7157H326.197V50.1478H330.759L332.279 39.8635H344.062V50.1478H353.565V61.7157H344.062V81.4257C344.062 82.2843 344.314 82.9982 344.823 83.5679C345.328 84.1414 345.962 84.4265 346.723 84.4265H356.605V95.5661Z" fill="#2B333B"/>
<path d="M208.987 35.762H195.683V47.7602H208.987V35.762Z" fill="#B8144B"/>
<path d="M320.986 35.762H307.682V47.7602H320.986V35.762Z" fill="#CC7400"/>
<defs>
<linearGradient id="paint0_linear_60_697" x1="45.1385" y1="127.401" x2="97.3178" y2="104.325" gradientUnits="userSpaceOnUse">
<stop offset="0.35" stop-color="#2466A8"/>
<stop offset="1" stop-color="#0A2342"/>
</linearGradient>
</defs>
</svg>
