<svg width="381" height="132" viewBox="0 0 381 132" fill="none" xmlns="http://www.w3.org/2000/svg">
<path d="M135.799 96.4901H121.688V34.6274H165.198V47.0006H135.799V61.5824H158.926V73.9556H135.799V96.4901Z" fill="#EAF2FB"/>
<path d="M191.068 96.4901C187.564 97.0782 184.234 97.3728 181.072 97.3728C177.91 97.3728 175.256 96.1671 173.116 93.7497C170.972 91.3351 169.9 88.1253 169.9 84.1169V34.6274H183.62V81.9078C183.62 82.7932 183.881 83.5294 184.405 84.1169C184.927 84.7083 185.58 85.0024 186.363 85.0024H191.068V96.4901Z" fill="#EAF2FB"/>
<path d="M213.803 51.4194V96.4901H200.082V63.3494H194.203V51.4194H213.803Z" fill="#EAF2FB"/>
<path d="M258.488 95.6073C248.714 96.7835 240.09 97.3726 232.617 97.3726C229.063 97.3726 226.215 96.167 224.072 93.7496C221.928 91.335 220.857 88.1252 220.857 84.1168V63.7908C220.857 59.3726 221.966 55.9133 224.189 53.4079C226.41 50.9031 229.481 49.6523 233.401 49.6523H258.488V61.5817H237.712C235.621 61.5817 234.576 62.7617 234.576 65.1173V82.3493C234.576 83.2341 234.838 83.9709 235.36 84.5606C235.882 85.1492 236.537 85.4433 237.32 85.4433C242.025 85.4433 249.079 85.0022 258.488 84.1168L258.488 95.6073Z" fill="#EAF2FB"/>
<path d="M278.48 77.9317V96.4901H264.76V34.6274H278.48V66.0001H284.752L293.375 49.653H307.878L296.119 72.1881L307.878 96.4907H293.375L284.359 77.9323H278.48V77.9317Z" fill="#EAF2FB"/>
<path d="M329.044 51.4194V96.4901H315.325V63.3494H309.445V51.4194H329.044Z" fill="#EAF2FB"/>
<path d="M365.89 96.4902C360.821 97.0783 355.855 97.3729 350.995 97.3729C347.441 97.3729 344.592 96.1672 342.45 93.7498C340.306 91.3352 339.236 88.1254 339.236 84.117V61.5819H334.531V49.6526H339.236L340.803 39.0469H352.955V49.6526H362.754V61.5819H352.955V81.9079C352.955 82.7933 353.215 83.5295 353.739 84.117C354.261 84.7084 354.914 85.0024 355.699 85.0024H365.89V96.4902Z" fill="#EAF2FB"/>
<path d="M213.66 34.8169H199.939V47.1901H213.66V34.8169Z" fill="#E61A5E"/>
<path d="M329.158 34.8169H315.439V47.1901H329.158V34.8169Z" fill="#FF9100"/>
<path d="M84.7667 64.1342V92.9102C84.7667 95.1884 82.9199 97.0352 80.6417 97.0352H31.1418C28.8637 97.0352 27.0168 95.1884 27.0168 92.9102V43.1502C27.0168 40.872 28.8384 39.0251 31.1166 39.0251C43.8396 39.0251 82.0829 39.0251 86.8292 39.0251L81.4803 26.8125H27.0177C20.1828 26.8125 14.6421 32.3289 14.6426 39.1638C14.6435 54.4401 14.6448 80.4387 14.6437 96.9135C14.6432 103.739 20.1442 109.259 26.9701 109.271C42.2728 109.297 68.3677 109.331 84.9062 109.3C91.6944 109.287 97.1417 103.779 97.1417 96.9912V49.794C95.5948 53.2732 94.048 55.3087 84.7667 64.1342Z" fill="#2466A8"/>
<path d="M27.0167 48.1846C27.0167 46.2174 27.0168 44.5256 27.0168 43.1502C27.0168 40.872 28.8602 39.0251 31.1384 39.0251C42.2719 39.0251 72.9734 39.0251 85.798 39.0251C85.798 39.0251 62.5948 29.8657 28.9253 26.8125H27.0919C20.2573 26.8125 14.7169 32.353 14.7169 39.1875V48.1846H27.0167Z" fill="url(#paint0_linear_9876_40717)"/>
<path fill-rule="evenodd" clip-rule="evenodd" d="M95.7039 35.576C93.4779 30.6892 86.8293 26.8125 81.673 26.8125C76.5168 26.8125 27.0177 26.8125 27.0177 26.8125C61.049 30.8834 85.2824 39.0252 85.2824 39.0252C86.8556 39.4688 87.3288 41.4685 86.1211 42.5701L83.9469 44.5532L60.9742 67.528C60.587 67.9153 59.9645 67.9323 59.5567 67.5668L54.123 62.6961C53.9339 62.5265 53.6888 62.4327 53.4347 62.4327H38.9282C37.9904 62.4327 37.5412 63.5661 38.2412 64.1901C43.9807 69.3064 56.4259 79.9888 59.5574 82.6735C59.9709 83.028 60.5782 82.9922 60.9591 82.6029C70.5041 72.8497 82.578 62.2635 92.0311 52.5787C96.7817 47.7118 98.7053 42.1619 95.7039 35.576Z" fill="#2466A8"/>
<defs>
<linearGradient id="paint0_linear_9876_40717" x1="45.9258" y1="131.382" x2="99.7358" y2="107.585" gradientUnits="userSpaceOnUse">
<stop offset="0.35" stop-color="#2466A8"/>
<stop offset="1" stop-color="#0A2342"/>
</linearGradient>
</defs>
</svg>
