<svg width="381" height="132" viewBox="0 0 381 132" fill="none" xmlns="http://www.w3.org/2000/svg">
<path d="M84.5616 62.0717V90.8477C84.5616 93.1259 82.7148 94.9727 80.4366 94.9727H30.9368C28.6586 94.9727 26.8118 93.1259 26.8118 90.8477V41.0877C26.8118 38.8095 28.6333 36.9626 30.9115 36.9626C43.6346 36.9626 81.8778 36.9626 86.6241 36.9626L81.2752 24.75H26.8126C19.9777 24.75 14.4371 30.2664 14.4375 37.1013C14.4385 52.3776 14.4397 78.3762 14.4386 94.851C14.4381 101.677 19.9392 107.197 26.765 107.209C42.0678 107.234 68.1627 107.269 84.7012 107.238C91.4893 107.225 96.9367 101.717 96.9367 94.9287V47.7315C95.3898 51.2107 93.8429 53.2462 84.5616 62.0717Z" fill="#EAF2FB"/>
<path d="M26.8116 46.1221C26.8116 44.1549 26.8118 42.4631 26.8118 41.0877C26.8118 38.8095 28.6552 36.9626 30.9333 36.9626C42.0668 36.9626 72.7683 36.9626 85.5929 36.9626C85.5929 36.9626 62.3898 27.8032 28.7202 24.75H26.8868C20.0523 24.75 14.5118 30.2905 14.5118 37.125V46.1221H26.8116Z" fill="#EAF2FB"/>
<path fill-rule="evenodd" clip-rule="evenodd" d="M95.4988 33.5135C93.2728 28.6267 86.6242 24.75 81.4679 24.75C76.3117 24.75 26.8126 24.75 26.8126 24.75C60.8439 28.8209 85.0773 36.9627 85.0773 36.9627C86.6506 37.4063 87.1237 39.406 85.916 40.5076L83.7418 42.4907L60.7692 65.4655C60.3819 65.8528 59.7594 65.8698 59.3516 65.5043L53.918 60.6336C53.7288 60.464 53.4837 60.3702 53.2296 60.3702H38.7232C37.7854 60.3702 37.3361 61.5036 38.0362 62.1276C43.7756 67.2439 56.2208 77.9263 59.3523 80.611C59.7658 80.9655 60.3731 80.9297 60.7541 80.5404C70.299 70.7872 82.3729 60.201 91.826 50.5162C96.5766 45.6493 98.5002 40.0994 95.4988 33.5135Z" fill="#EAF2FB"/>
<path d="M84.9698 64.1342V92.9102C84.9698 95.1884 83.123 97.0352 80.8448 97.0352H31.345C29.0668 97.0352 27.22 95.1884 27.22 92.9102V43.1502C27.22 40.872 29.0415 39.0251 31.3197 39.0251C44.0428 39.0251 82.286 39.0251 87.0323 39.0251L81.6835 26.8125H27.2208C20.3859 26.8125 14.8453 32.3289 14.8457 39.1638C14.8467 54.4401 14.8479 80.4387 14.8468 96.9135C14.8463 103.739 20.3474 109.259 27.1732 109.271C42.476 109.297 68.5709 109.331 85.1094 109.3C91.8975 109.287 97.3449 103.779 97.3449 96.9912V49.794C95.798 53.2732 94.2511 55.3087 84.9698 64.1342Z" fill="#EAF2FB"/>
<path d="M27.2198 48.1846C27.2198 46.2174 27.22 44.5256 27.22 43.1502C27.22 40.872 29.0634 39.0251 31.3415 39.0251C42.475 39.0251 73.1765 39.0251 86.0011 39.0251C86.0011 39.0251 62.798 29.8657 29.1284 26.8125H27.295C20.4605 26.8125 14.92 32.353 14.92 39.1875V48.1846H27.2198Z" fill="url(#paint0_linear_9876_40752)"/>
<path fill-rule="evenodd" clip-rule="evenodd" d="M95.907 35.576C93.681 30.6892 87.0324 26.8125 81.8761 26.8125C76.7199 26.8125 27.2208 26.8125 27.2208 26.8125C61.2521 30.8834 85.4855 39.0252 85.4855 39.0252C87.0588 39.4688 87.5319 41.4685 86.3242 42.5701L84.15 44.5532L61.1774 67.528C60.7901 67.9153 60.1676 67.9323 59.7598 67.5668L54.3262 62.6961C54.137 62.5265 53.8919 62.4327 53.6378 62.4327H39.1314C38.1936 62.4327 37.7443 63.5661 38.4444 64.1901C44.1838 69.3064 56.629 79.9888 59.7605 82.6735C60.174 83.028 60.7813 82.9922 61.1623 82.6029C70.7072 72.8497 82.7811 62.2635 92.2342 52.5787C96.9848 47.7118 98.9084 42.1619 95.907 35.576Z" fill="#EAF2FB"/>
<path d="M135.799 96.4901H121.688V34.6274H165.198V47.0006H135.799V61.5824H158.926V73.9556H135.799V96.4901Z" fill="#EAF2FB"/>
<path d="M191.068 96.4901C187.564 97.0782 184.234 97.3728 181.072 97.3728C177.91 97.3728 175.256 96.1671 173.116 93.7497C170.972 91.3351 169.9 88.1253 169.9 84.1169V34.6274H183.62V81.9078C183.62 82.7932 183.881 83.5294 184.405 84.1169C184.927 84.7083 185.58 85.0024 186.363 85.0024H191.068V96.4901Z" fill="#EAF2FB"/>
<path d="M213.803 51.4194V96.4901H200.082V63.3494H194.203V51.4194H213.803Z" fill="#EAF2FB"/>
<path d="M258.488 95.6073C248.714 96.7835 240.09 97.3726 232.617 97.3726C229.063 97.3726 226.215 96.167 224.072 93.7496C221.928 91.335 220.857 88.1252 220.857 84.1168V63.7908C220.857 59.3726 221.966 55.9133 224.189 53.4079C226.41 50.9031 229.481 49.6523 233.401 49.6523H258.488V61.5817H237.712C235.621 61.5817 234.576 62.7617 234.576 65.1173V82.3493C234.576 83.2341 234.838 83.9709 235.36 84.5606C235.882 85.1492 236.537 85.4433 237.32 85.4433C242.025 85.4433 249.079 85.0022 258.488 84.1168L258.488 95.6073Z" fill="#EAF2FB"/>
<path d="M278.48 77.9317V96.4901H264.76V34.6274H278.48V66.0001H284.752L293.375 49.653H307.878L296.119 72.1881L307.878 96.4907H293.375L284.359 77.9323H278.48V77.9317Z" fill="#EAF2FB"/>
<path d="M329.044 51.4194V96.4901H315.325V63.3494H309.445V51.4194H329.044Z" fill="#EAF2FB"/>
<path d="M365.89 96.4902C360.821 97.0783 355.855 97.3729 350.995 97.3729C347.441 97.3729 344.592 96.1672 342.45 93.7498C340.306 91.3352 339.236 88.1254 339.236 84.117V61.5819H334.531V49.6526H339.236L340.803 39.0469H352.955V49.6526H362.754V61.5819H352.955V81.9079C352.955 82.7933 353.215 83.5295 353.739 84.117C354.261 84.7084 354.914 85.0024 355.699 85.0024H365.89V96.4902Z" fill="#EAF2FB"/>
<path d="M213.66 34.8169H199.939V47.1901H213.66V34.8169Z" fill="#E61A5E"/>
<path d="M329.158 34.8169H315.439V47.1901H329.158V34.8169Z" fill="#FF9100"/>
<defs>
<linearGradient id="paint0_linear_9876_40752" x1="46.129" y1="131.382" x2="99.9389" y2="107.585" gradientUnits="userSpaceOnUse">
<stop offset="0.35" stop-color="#EAF2FB"/>
<stop offset="1" stop-color="#668099"/>
</linearGradient>
</defs>
</svg>
