<svg width="37" height="36" viewBox="0 0 37 36" fill="none" xmlns="http://www.w3.org/2000/svg">
<path d="M34.34 18.375C34.34 17.205 34.235 16.08 34.04 15H18.5V21.39H27.38C26.99 23.445 25.82 25.185 24.065 26.355V30.51H29.42C32.54 27.63 34.34 23.4 34.34 18.375Z" fill="#4285F4"/>
<path d="M18.5 34.5C22.955 34.5 26.69 33.03 29.42 30.51L24.065 26.355C22.595 27.345 20.72 27.945 18.5 27.945C14.21 27.945 10.565 25.05 9.26002 21.15H3.77002V25.41C6.48502 30.795 12.05 34.5 18.5 34.5Z" fill="#34A853"/>
<path d="M9.26 21.135C8.93 20.145 8.735 19.095 8.735 18C8.735 16.905 8.93 15.855 9.26 14.865V10.605H3.77C2.645 12.825 2 15.33 2 18C2 20.67 2.645 23.175 3.77 25.395L8.045 22.065L9.26 21.135Z" fill="#FBBC05"/>
<path d="M18.5 8.07C20.93 8.07 23.09 8.91 24.815 10.53L29.54 5.805C26.675 3.135 22.955 1.5 18.5 1.5C12.05 1.5 6.48502 5.205 3.77002 10.605L9.26002 14.865C10.565 10.965 14.21 8.07 18.5 8.07Z" fill="#EA4335"/>
</svg>
