<svg width="106" height="38" viewBox="0 0 106 38" fill="none" xmlns="http://www.w3.org/2000/svg">
<path d="M23.5044 17.9034V25.9364C23.5044 26.5724 22.9911 27.0879 22.3579 27.0879H8.59921C7.96598 27.0879 7.45265 26.5724 7.45265 25.9364V12.0456C7.45265 11.4096 7.95896 10.8941 8.59219 10.8941C12.1286 10.8941 22.7584 10.8941 24.0777 10.8941L22.591 7.48486H7.45289C5.5531 7.48486 4.01306 9.0248 4.01318 10.9328C4.01345 15.1973 4.01381 22.4549 4.01349 27.0539C4.01336 28.9594 5.54239 30.5004 7.43966 30.5036C11.6931 30.5108 18.9463 30.5204 23.5432 30.5117C25.43 30.5081 26.9441 28.9706 26.9441 27.0756V13.9003C26.5141 14.8715 26.0842 15.4397 23.5044 17.9034Z" fill="#004F83"/>
<path d="M7.45262 13.451C7.45262 12.9018 7.45265 12.4296 7.45265 12.0456C7.45265 11.4096 7.96503 10.8941 8.59826 10.8941C11.6929 10.8941 20.2264 10.8941 23.7911 10.8941C23.7911 10.8941 17.3417 8.33717 7.98312 7.48486H7.47351C5.57383 7.48486 4.03383 9.03152 4.03383 10.9394V13.451H7.45262Z" fill="url(#paint0_linear_861_2490)"/>
<path fill-rule="evenodd" clip-rule="evenodd" d="M26.5445 9.93124C25.9257 8.56707 24.0777 7.48487 22.6445 7.48487C21.2113 7.48487 7.45289 7.48486 7.45289 7.48486C16.912 8.62127 23.6478 10.8941 23.6478 10.8941C24.0851 11.0179 24.2166 11.5762 23.8809 11.8837L23.2766 12.4373L16.8912 18.8508C16.7836 18.9589 16.6106 18.9637 16.4972 18.8616L14.9869 17.502C14.9343 17.4546 14.8662 17.4284 14.7956 17.4284H10.7635C10.5028 17.4284 10.3779 17.7448 10.5725 17.919C12.1678 19.3472 15.627 22.3293 16.4974 23.0788C16.6123 23.1777 16.7811 23.1677 16.887 23.0591C19.5401 20.3364 22.8961 17.3812 25.5236 14.6776C26.844 13.319 27.3787 11.7697 26.5445 9.93124Z" fill="#004F83"/>
<path d="M38.0328 27.5115H34.1104V10.2422H46.2042V13.6962H38.0328V17.7668H44.4609V21.2209H38.0328V27.5115Z" fill="#0A2342"/>
<path d="M53.3955 27.5115C52.4214 27.6756 51.4958 27.7579 50.6168 27.7579C49.7379 27.7579 49.0004 27.4213 48.4055 26.7465C47.8095 26.0724 47.5117 25.1764 47.5117 24.0574V10.2422H51.3252V23.4407C51.3252 23.6879 51.3976 23.8934 51.5433 24.0574C51.6883 24.2225 51.8699 24.3046 52.0876 24.3046H53.3955V27.5115Z" fill="#0A2342"/>
<path d="M59.7144 14.9298V27.5115H55.9006V18.2601H54.2666V14.9298H59.7144Z" fill="#0A2342"/>
<path d="M72.1349 27.2651C69.4181 27.5934 67.0212 27.7579 64.944 27.7579C63.9562 27.7579 63.1646 27.4213 62.5688 26.7465C61.973 26.0724 61.6753 25.1764 61.6753 24.0575V18.3834C61.6753 17.15 61.9834 16.1843 62.6015 15.4849C63.2185 14.7857 64.0722 14.4365 65.1619 14.4365H72.1348V17.7667H66.3602C65.7789 17.7667 65.4884 18.0961 65.4884 18.7537V23.564C65.4884 23.8111 65.5612 24.0167 65.7064 24.1813C65.8514 24.3457 66.0335 24.4277 66.2512 24.4277C67.5588 24.4277 69.5197 24.3046 72.1348 24.0575L72.1349 27.2651Z" fill="#0A2342"/>
<path d="M77.6916 22.3308V27.5115H73.8779V10.2422H77.6916V19H79.4349L81.8318 14.4367H85.8629L82.5944 20.7274L85.8629 27.5116H81.8318L79.3256 22.331H77.6916V22.3308Z" fill="#0A2342"/>
<path d="M91.746 14.9298V27.5115H87.9327V18.2601H86.2983V14.9298H91.746Z" fill="#0A2342"/>
<path d="M101.987 27.5114C100.578 27.6756 99.198 27.7578 97.8471 27.7578C96.8592 27.7578 96.0673 27.4213 95.4719 26.7464C94.876 26.0724 94.5786 25.1763 94.5786 24.0574V17.7666H93.271V14.4365H94.5786L95.0143 11.4758H98.3918V14.4365H101.116V17.7666H98.3918V23.4407C98.3918 23.6879 98.4642 23.8934 98.6099 24.0574C98.7549 24.2225 98.9366 24.3046 99.1546 24.3046H101.987V27.5114Z" fill="#0A2342"/>
<path d="M59.674 10.295H55.8604V13.7491H59.674V10.295Z" fill="#D81E5B"/>
<path d="M91.7776 10.295H87.9644V13.7491H91.7776V10.295Z" fill="#F9A03F"/>
<defs>
<linearGradient id="paint0_linear_861_2490" x1="12.7085" y1="36.676" x2="27.6862" y2="30.0807" gradientUnits="userSpaceOnUse">
<stop offset="0.35" stop-color="#004F83"/>
<stop offset="1" stop-color="#0A2342"/>
</linearGradient>
</defs>
</svg>
